<svg><defs><font id="Minecraft-Regular" horiz-adv-x="600"><font-face font-family="Minecraft" font-weight="400" panose-1="0 0 5 0 0 0 0 0 0 0" ascent="800" descent="-200" x-height="500" cap-height="700" bbox="0 -200 800 700" underline-thickness="50" underline-position="-50" unicode-range="U+0020-U+2666"/><glyph glyph-name=".notdef" horiz-adv-x="100"/><glyph glyph-name="A" unicode="A" d="M100 600v100h300V600H100zm300 0h100V0H400v400H100V0H0v600h100V500h300v100z"/><glyph glyph-name="Adieresis" unicode="Ä" d="M0 700h100V600H0v100zm500 0V600H400v100h100zM400 600V500H100v100h300zm0-200v100h100V0H400v300H100V0H0v500h100V400h300z"/><glyph glyph-name="Aring" unicode="Å" d="M300 700V600H200v100h100zM100 400v100h300V400H100zm300 0h100V0H400v200H100V0H0v400h100V300h300v100z"/><glyph glyph-name="AE" unicode="Æ" d="M300 600V500h100V400H300V100h200V0H200v400H100V0H0v600h100V500h100v100H100v100h400V600H300z"/><glyph glyph-name="B" unicode="B" d="M400 500V400H100V100h300V0H0v700h400V600H100V500h300zm100 0H400v100h100V500zM400 400h100V100H400v300z"/><glyph glyph-name="C" unicode="C" d="M400 700V600H100v100h300zM0 600h100V100H0v500zm500-100H400v100h100V500zm0-300V100H400v100h100zM100 0v100h300V0H100z"/><glyph glyph-name="Ccedilla" unicode="Ç" d="M400 700V600H100v100h300zM0 600h100V100H0v500zm500-100H400v100h100V500zm0-300V100H400v100h100zM100 0v100h300V0H100zm400-100H400V0h100v-100zm-300 0h200v-100H200v100z"/><glyph glyph-name="D" unicode="D" d="M400 100V0H0v700h400V600H100V100h300zm0 500h100V100H400v500z"/><glyph glyph-name="E" unicode="E" d="M100 600V500h200V400H100V100h400V0H0v700h500V600H100z"/><glyph glyph-name="F" unicode="F" d="M500 700V600H100V500h200V400H100V0H0v700h500z"/><glyph glyph-name="G" unicode="G" d="M100 600v100h400V600H100zm0-500H0v500h100V100zm400 0H400v300H300v100h200V100zM100 0v100h300V0H100z"/><glyph glyph-name="H" unicode="H" d="M400 700h100V0H400v400H100V0H0v700h100V500h300v200z"/><glyph glyph-name="I" unicode="I" horiz-adv-x="400" d="M200 100h100V0H0v100h100v500H0v100h300V600H200V100z"/><glyph glyph-name="J" unicode="J" d="M400 700h100V100H400v600zM0 200h100V100H0v100zm400-100V0H100v100h300z"/><glyph glyph-name="K" unicode="K" d="M300 500V400H100V0H0v700h100V500h200zm200 200V600H400v100h100zM400 600V500H300v100h100zm0-300H300v100h100V300zm0 0h100V0H400v300z"/><glyph glyph-name="L" unicode="L" d="M500 100V0H0v700h100V100h400z"/><glyph glyph-name="M" unicode="M" d="M100 600h100V500H100V0H0v700h100V600zm300 100h100V0H400v500H300v100h100v100zM200 400v100h100V400H200z"/><glyph glyph-name="N" unicode="N" d="M100 600h100V500H100V0H0v700h100V600zm300 100h100V0H400v300H300v100h100v300zM200 500h100V400H200v100z"/><glyph glyph-name="Ntilde" unicode="Ñ" d="M500 700V600H0v100h500zM100 400h100V300H100V0H0v500h100V400zm300 100h100V0H400v100H300v100h100v300zM200 300h100V200H200v100z"/><glyph glyph-name="O" unicode="O" d="M100 600v100h300V600H100zm0-500H0v500h100V100zm300 500h100V100H400v500zm0-500V0H100v100h300z"/><glyph glyph-name="Oslash" unicode="Ø" d="M100 600v100h300V600H100zm100-400H100V100H0v500h100V300h100V200zm200 400h100V100H400v300H300v100h100v100zM200 300v100h100V300H200zm200-200V0H100v100h300z"/><glyph glyph-name="P" unicode="P" d="M400 500V400H100V0H0v700h400V600H100V500h300zm0 100h100V500H400v100z"/><glyph glyph-name="Q" unicode="Q" d="M100 600v100h300V600H100zm0-500H0v500h100V100zm300 500h100V200H400v400zM300 100v100h100V100H300zm-200 0h200V0H100v100zM500 0H400v100h100V0z"/><glyph glyph-name="R" unicode="R" d="M400 500V400H100V0H0v700h400V600H100V500h300zm100 0H400v100h100V500zM400 400h100V0H400v400z"/><glyph glyph-name="S" unicode="S" d="M100 600v100h400V600H100zM0 600h100V500H0v100zm100-200v100h300V400H100zm300 0h100V100H400v300zM0 200h100V100H0v100zm400-100V0H100v100h300z"/><glyph glyph-name="T" unicode="T" d="M500 700V600H300V0H200v600H0v100h500z"/><glyph glyph-name="U" unicode="U" d="M100 100H0v600h100V100zm300 600h100V100H400v600zm0-600V0H100v100h300z"/><glyph glyph-name="Udieresis" unicode="Ü" d="M100 700V600H0v100h100zm300 0h100V600H400v100zM100 100H0v400h100V100zm300 400h100V100H400v400zm0-400V0H100v100h300z"/><glyph glyph-name="V" unicode="V" d="M100 300H0v400h100V300zm300 400h100V300H400v400zM200 300V100H100v200h100zm100 0h100V100H300v200zM200 0v100h100V0H200z"/><glyph glyph-name="W" unicode="W" d="M100 200h100V100H100V0H0v700h100V200zm300 500h100V0H400v100H300v100h100v500zM200 300h100V200H200v100z"/><glyph glyph-name="X" unicode="X" d="M0 700h100V600H0v100zm500 0V600H400v100h100zM100 600h100V500H100v100zm300 0V500H300v100h100zM200 500h100V400H200v100zM100 300v100h100V300H100zm300 0H300v100h100V300zM0 300h100V0H0v300zm400 0h100V0H400v300z"/><glyph glyph-name="Y" unicode="Y" d="M0 700h100V600H0v100zm400 0h100V600H400v100zM100 600h100V500H100v100zm200-100v100h100V500H300zm-100 0h100V0H200v500z"/><glyph glyph-name="Z" unicode="Z" d="M500 700V500H400v100H0v100h500zM300 400v100h100V400H300zM200 300v100h100V300H200zM100 200v100h100V200H100zM0 200h100V100h400V0H0v200z"/><glyph glyph-name="a" unicode="a" d="M400 500V400H100v100h300zm0-100h100V0H100v100h300v100H100v100h300v100zM0 200h100V100H0v100z"/><glyph glyph-name="aacute" unicode="á" d="M500 700V600H300v100h200zM400 500V400H100v100h300zm0-200v100h100V0H100v100h300v100H100v100h300zM0 200h100V100H0v100z"/><glyph glyph-name="acircumflex" unicode="â" d="M100 600v100h300V600H100zM0 600h100V500H0v100zm500-100H400v100h100V500zm-100 0V400H100v100h300zm0-200v100h100V0H100v100h300v100H100v100h300zM0 200h100V100H0v100z"/><glyph glyph-name="agrave" unicode="à" d="M200 600H0v100h200V600zm200-100V400H100v100h300zm0-100h100V0H100v100h300v100H100v100h300v100zM0 200h100V100H0v100z"/><glyph glyph-name="aring" unicode="å" d="M300 700V600H200v100h100zm100-200V400H100v100h300zm0-100h100V0H100v100h300v100H100v100h300v100zM0 200h100V100H0v100z"/><glyph glyph-name="ae" unicode="æ" d="M100 500h100V400H100v100zm300 0V400H300v100h100zm0-300H300V100h200V0H100v100h100v100H100v100h100v100h100V300h100V200zm100 100H400v100h100V300zM0 200h100V100H0v100z"/><glyph glyph-name="b" unicode="b" d="M400 100V0H0v700h100V400h100V300H100V100h300zm0 300H200v100h200V400zm0 0h100V100H400v300z"/><glyph glyph-name="c" unicode="c" d="M400 500V400H100v100h300zM0 400h100V100H0v300zm500-100H400v100h100V300zm0-100V100H400v100h100zM100 0v100h300V0H100z"/><glyph glyph-name="ccedilla" unicode="ç" d="M400 500V400H100v100h300zM0 400h100V100H0v300zm500-100H400v100h100V300zm0-100V100H400v100h100zM100 0v100h300V0H100zm400-100H400V0h100v-100zm-300 0h200v-100H200v100z"/><glyph glyph-name="d" unicode="d" d="M400 700h100V0H100v100h300v200H300v100h100v300zM300 400H100v100h200V400zM100 100H0v300h100V100z"/><glyph glyph-name="e" unicode="e" d="M100 400v100h300V400H100zm300 0h100V200H100V100H0v300h100V300h300v100zM100 0v100h400V0H100z"/><glyph glyph-name="ecircumflex" unicode="ê" d="M100 600v100h300V600H100zM0 600h100V500H0v100zm500-100H400v100h100V500zm-100 0V400H100v100h300zm0-200v100h100V200H100V100H0v300h100V300h300zM100 0v100h400V0H100z"/><glyph glyph-name="edieresis" unicode="ë" d="M200 700V600H100v100h100zm200 0V600H300v100h100zM100 400v100h300V400H100zm300 0h100V200H100V100H0v300h100V300h300v100zM100 0v100h400V0H100z"/><glyph glyph-name="f" unicode="f" horiz-adv-x="500" d="M400 600H200v100h200V600zm-300 0h100V500h200V400H200V0H100v400H0v100h100v100z"/><glyph glyph-name="g" unicode="g" d="M500 500V0H400v100H100v100h300v200H100v100h400zM100 400V200H0v200h100zM400 0v-100H0V0h400z"/><glyph glyph-name="h" unicode="h" d="M100 400h100V300H100V0H0v700h100V400zm300 100V400H200v100h200zm0-100h100V0H400v400z"/><glyph glyph-name="i" unicode="i" horiz-adv-x="200" d="M0 700h100V600H0v100zm0-200h100V0H0v500z"/><glyph glyph-name="iacute" unicode="í" horiz-adv-x="300" d="M200 700V600H0v100h200zM0 500h100V0H0v500z"/><glyph glyph-name="icircumflex" unicode="î" horiz-adv-x="400" d="M100 700V600H0v100h100zm100 0h100V600H200v100zM100 500h100V0H100v500z"/><glyph glyph-name="j" unicode="j" d="M400 700h100V600H400v100zm0-200h100V0H400v500zM0 100h100V0H0v100zM400 0v-100H100V0h300z"/><glyph glyph-name="k" unicode="k" horiz-adv-x="500" d="M100 300h100V200H100V0H0v700h100V300zm300 200V400H300v100h100zM300 400V300H200v100h100zm0-300H200v100h100V100zM400 0H300v100h100V0z"/><glyph glyph-name="l" unicode="l" horiz-adv-x="300" d="M100 100H0v600h100V100zm0 0h100V0H100v100z"/><glyph glyph-name="m" unicode="m" d="M200 500V400H100V0H0v500h200zm100 0h100V400H300v100zM200 400h100V200H200v200zm200 0h100V0H400v400z"/><glyph glyph-name="n" unicode="n" d="M400 500V400H100V0H0v500h400zm0-100h100V0H400v400z"/><glyph glyph-name="ntilde" unicode="ñ" d="M500 700V600H0v100h500zM400 500V400H100V0H0v500h400zm0-100h100V0H400v400z"/><glyph glyph-name="o" unicode="o" d="M100 400v100h300V400H100zm0-300H0v300h100V100zm300 300h100V100H400v300zm0-300V0H100v100h300z"/><glyph glyph-name="oacute" unicode="ó" d="M500 700V600H300v100h200zM100 400v100h300V400H100zm0-300H0v300h100V100zm300 300h100V100H400v300zm0-300V0H100v100h300z"/><glyph glyph-name="ocircumflex" unicode="ô" d="M100 600v100h300V600H100zM0 600h100V500H0v100zm500-100H400v100h100V500zm-100 0V400H100v100h300zM100 100H0v300h100V100zm300 300h100V100H400v300zm0-300V0H100v100h300z"/><glyph glyph-name="odieresis" unicode="ö" d="M200 700V600H100v100h100zm200 0V600H300v100h100zM100 400v100h300V400H100zm0-300H0v300h100V100zm300 300h100V100H400v300zm0-300V0H100v100h300z"/><glyph glyph-name="ograve" unicode="ò" d="M200 600H0v100h200V600zM100 400v100h300V400H100zm0-300H0v300h100V100zm300 300h100V100H400v300zm0-300V0H100v100h300z"/><glyph glyph-name="oslash" unicode="ø" d="M400 400h100V100H400v200H300v100H100v100h300V400zM200 100h200V0H300v-100H200V0H100v100H0v300h100V200h100V100zm0 100v100h100V200H200z"/><glyph glyph-name="p" unicode="p" d="M400 200V100H100v-200H0v600h100V400h100V300H100V200h300zm0 200H200v100h200V400zm0 0h100V200H400v200z"/><glyph glyph-name="q" unicode="q" d="M400 500h100v-600H400v200H100v100h300v100H300v100h100v100zM300 400H100v100h200V400zm-200 0V200H0v200h100z"/><glyph glyph-name="r" unicode="r" d="M100 500V400h100V300H100V0H0v500h100zm300 0V400H200v100h200zm0-100h100V300H400v100z"/><glyph glyph-name="s" unicode="s" d="M100 400v100h400V400H100zM0 400h100V300H0v100zm100-200v100h300V200H100zm400-100H400v100h100V100zm-100 0V0H0v100h400z"/><glyph glyph-name="t" unicode="t" horiz-adv-x="400" d="M200 100H100v300H0v100h100v200h100V500h100V400H200V100zM300 0H200v100h100V0z"/><glyph glyph-name="u" unicode="u" d="M100 100H0v400h100V100zm300 400h100V0H100v100h300v400z"/><glyph glyph-name="uacute" unicode="ú" d="M500 700V600H300v100h200zM100 100H0v400h100V100zm300 400h100V0H100v100h300v400z"/><glyph glyph-name="ucircumflex" unicode="û" d="M400 700V600H100v100h300zM0 500v100h100V500H0zm400 100h100V500H400v100zM100 100H0v300h100V100zm300 300h100V0H100v100h300v300z"/><glyph glyph-name="udieresis" unicode="ü" d="M200 700V600H100v100h100zm200 0V600H300v100h100zM100 100H0v400h100V100zm300 400h100V0H100v100h300v400z"/><glyph glyph-name="ugrave" unicode="ù" d="M200 600H0v100h200V600zM100 100H0v400h100V100zm300 400h100V0H100v100h300v400z"/><glyph glyph-name="v" unicode="v" d="M100 200H0v300h100V200zm300 300h100V200H400v300zM100 200h100V100H100v100zm200-100v100h100V100H300zM200 0v100h100V0H200z"/><glyph glyph-name="w" unicode="w" d="M100 100H0v400h100V100zm300 400h100V0H100v100h100v200h100V100h100v400z"/><glyph glyph-name="x" unicode="x" d="M0 400v100h100V400H0zm400 0v100h100V400H400zM100 300v100h100V300H100zm200 0v100h100V300H300zM200 200v100h100V200H200zM100 100v100h100V100H100zm200 0v100h100V100H300zM0 0v100h100V0H0zm400 0v100h100V0H400z"/><glyph glyph-name="y" unicode="y" d="M100 200H0v300h100V200zm300 300h100V0H400v100H100v100h300v300zm0-500v-100H0V0h400z"/><glyph glyph-name="ydieresis" unicode="ÿ" d="M200 700V600H100v100h100zm200 0V600H300v100h100zM100 200H0v300h100V200zm300 300h100V0H400v100H100v100h300v300zm0-500v-100H0V0h400z"/><glyph glyph-name="z" unicode="z" d="M400 400V300H300v100H0v100h500V400H400zM300 300V200H200v100h100zM100 200h100V100h300V0H0v100h100v100z"/><glyph glyph-name="uni03A9" unicode="Ω" d="M400 700V600H100v100h300zM0 600h100V200H0v400zm400 0h100V200H400v400zM0 100h100v100h100V0H0v100zm300 100h100V100h100V0H300v200z"/><glyph glyph-name="zero" unicode="0" d="M100 600v100h300V600H100zm100-400H100V100H0v500h100V300h100V200zm200 400h100V100H400v300H300v100h100v100zM200 300v100h100V300H200zm200-200V0H100v100h300z"/><glyph glyph-name="one" unicode="1" d="M500 100V0H0v100h200v400H100v100h100v100h100V100h200z"/><glyph glyph-name="two" unicode="2" d="M400 700V600H100v100h300zM0 500v100h100V500H0zm400 100h100V400H400v200zM200 400h200V300H200v100zM100 200v100h100V200H100zM0 200h100V100h300v100h100V0H0v200z"/><glyph glyph-name="three" unicode="3" d="M400 700V600H100v100h300zM0 500v100h100V500H0zm400 100h100V400H400v200zM200 400h200V300H200v100zm200-300v200h100V100H400zM0 200h100V100H0v100zm400-100V0H100v100h300z"/><glyph glyph-name="four" unicode="4" d="M500 700V0H400v200H0v200h100V300h300v300H300v100h200zM300 600V500H200v100h100zM200 500V400H100v100h100z"/><glyph glyph-name="five" unicode="5" d="M100 600V500h300V400H0v300h500V600H100zm300-200h100V100H400v300zM0 200h100V100H0v100zm400-100V0H100v100h300z"/><glyph glyph-name="six" unicode="6" d="M400 600H200v100h200V600zm-200 0V500H100v100h100zM100 300V100H0v400h100V400h300V300H100zm300 0h100V100H400v200zm0-200V0H100v100h300z"/><glyph glyph-name="seven" unicode="7" d="M500 700V400H400v200H100V500H0v200h500zM300 300v100h100V300H300zm-100 0h100V0H200v300z"/><glyph glyph-name="eight" unicode="8" d="M100 600v100h300V600H100zm0 0V400H0v200h100zm300 0h100V400H400v200zm0-200V300H100v100h300zM100 300V100H0v200h100zm300-200v200h100V100H400zm0 0V0H100v100h300z"/><glyph glyph-name="nine" unicode="9" d="M100 600v100h300V600H100zm0 0V400H0v200h100zm300 0h100V200H400v100H100v100h300v200zM300 100v100h100V100H300zm-200 0h200V0H100v100z"/><glyph glyph-name="period" unicode="." horiz-adv-x="200" d="M0 200h100V0H0v200z"/><glyph glyph-name="comma" unicode="," horiz-adv-x="200" d="M0 200h100v-300H0v300z"/><glyph glyph-name="colon" unicode=":" horiz-adv-x="200" d="M0 600h100V400H0v200zm0-400h100V0H0v200z"/><glyph glyph-name="semicolon" unicode=";" horiz-adv-x="200" d="M0 600h100V400H0v200zm0-400h100v-300H0v300z"/><glyph glyph-name="exclam" unicode="!" horiz-adv-x="200" d="M0 700h100V200H0v500zM0 0v100h100V0H0z"/><glyph glyph-name="exclamdown" unicode="¡" horiz-adv-x="200" d="M0 600h100V500H0v100zm0-200h100V0H0v400z"/><glyph glyph-name="question" unicode="?" d="M400 700V600H100v100h300zM0 500v100h100V500H0zm400 100h100V400H400v200zM300 300v100h100V300H300zM200 200v100h100V200H200zm0-200v100h100V0H200z"/><glyph glyph-name="questiondown" unicode="¿" d="M300 700V600H200v100h100zm0-200V400H200v100h100zM200 400V300H100v100h100zM100 300V100H0v200h100zm300-100h100V100H400v100zm0-100V0H100v100h300z"/><glyph glyph-name="periodcentered" unicode="·" horiz-adv-x="300" d="M200 400V200H0v200h200z"/><glyph glyph-name="bullet" unicode="•" horiz-adv-x="300" d="M200 400V200H0v200h200z"/><glyph glyph-name="asterisk" unicode="*" horiz-adv-x="500" d="M0 500h100V400H0v100zm400 0V400H300v100h100zM300 400V300H100v100h200zM0 200v100h100V200H0zm400 0H300v100h100V200z"/><glyph glyph-name="numbersign" unicode="#" d="M500 400H400V300h100V200H400V0H300v200H200V0H100v200H0v100h100v100H0v100h100v200h100V500h100v200h100V500h100V400zM300 300v100H200V300h100z"/><glyph glyph-name="slash" unicode="/" d="M400 700h100V600H400v100zM300 600h100V400H300v200zM200 300v100h100V300H200zm-100 0h100V100H100v200zM0 0v100h100V0H0z"/><glyph glyph-name="backslash" unicode="\" d="M0 700h100V600H0v100zm200-100V400H100v200h100zm0-200h100V300H200v100zm200-100V100H300v200h100zm0-200h100V0H400v100z"/><glyph glyph-name="parenleft" unicode="(" horiz-adv-x="500" d="M400 600H200v100h200V600zm-200 0V500H100v100h100zM100 200H0v300h100V200zm100-100H100v100h100V100zm0-100v100h200V0H200z"/><glyph glyph-name="parenright" unicode=")" horiz-adv-x="500" d="M200 700V600H0v100h200zm0-100h100V500H200v100zm100-100h100V200H300v300zM200 100v100h100V100H200zM0 100h200V0H0v100z"/><glyph glyph-name="braceleft" unicode="{" horiz-adv-x="500" d="M400 600H200v100h200V600zM200 400H100v200h100V400zM0 400h100V300H0v100zm100-300v200h100V100H100zM200 0v100h200V0H200z"/><glyph glyph-name="braceright" unicode="}" horiz-adv-x="500" d="M200 700V600H0v100h200zm100-100V400H200v200h100zm0-200h100V300H300v100zM200 300h100V100H200v200zM0 100h200V0H0v100z"/><glyph glyph-name="bracketleft" unicode="[" horiz-adv-x="400" d="M100 100h200V0H0v700h300V600H100V100z"/><glyph glyph-name="bracketright" unicode="]" horiz-adv-x="400" d="M300 700V0H0v100h200v500H0v100h300z"/><glyph glyph-name="hyphen" unicode="-" d="M500 400V300H0v100h500z"/><glyph glyph-name="uni00AD" unicode="­" horiz-adv-x="300" d="M200 400V300H0v100h200z"/><glyph glyph-name="emdash" unicode="—" d="M500 400V300H0v100h500z"/><glyph glyph-name="underscore" unicode="_" d="M500 0v-100H0V0h500z"/><glyph glyph-name="guillemotleft" unicode="«" d="M200 400v100h100V400H200zm200 0v100h100V400H400zM100 300v100h100V300H100zm200 0v100h100V300H300zM0 200v100h100V200H0zm200 0v100h100V200H200zM100 100v100h100V100H100zm200 0v100h100V100H300zM200 0v100h100V0H200zm200 0v100h100V0H400z"/><glyph glyph-name="guillemotright" unicode="»" d="M0 400v100h100V400H0zm200 0v100h100V400H200zM100 300v100h100V300H100zm200 0v100h100V300H300zM200 200v100h100V200H200zm200 0v100h100V200H400zM100 100v100h100V100H100zm200 0v100h100V100H300zM0 0v100h100V0H0zm200 0v100h100V0H200z"/><glyph glyph-name="quotedbl" unicode="&quot;" horiz-adv-x="500" d="M200 700V500H100v200h100zm100 0h100V500H300v200zM0 400v100h100V400H0zm200 0v100h100V400H200z"/><glyph glyph-name="quotesingle" unicode="'" horiz-adv-x="300" d="M100 700h100V500H100v200zM0 400v100h100V400H0z"/><glyph glyph-name="space" horiz-adv-x="400"/><glyph glyph-name="cent" unicode="¢" horiz-adv-x="500" d="M100 300v100h100v100h100V400h100V300H100zM0 300h100V200H0v100zm200-200H100v100h300V100H300V0H200v100z"/><glyph glyph-name="currency" unicode="¤" horiz-adv-x="400" d="M0 400v100h100V400H0zm200 0v100h100V400H200zM100 300v100h100V300H100zM0 200v100h100V200H0zm200 0v100h100V200H200z"/><glyph glyph-name="dollar" unicode="$" d="M100 500v100h100v100h100V600h200V500H100zM0 500h100V400H0v100zm100-200v100h300V300H100zm400-100H400v100h100V200zm-100 0V100H300V0H200v100H0v100h400z"/><glyph glyph-name="florin" unicode="ƒ" d="M300 700h100V600H300v100zM200 600h100V400h100V300H300V100H200v200H100v100h100v200zm200 0h100V500H400v100zM0 200h100V100H0v100zM100 0v100h100V0H100z"/><glyph glyph-name="sterling" unicode="£" d="M400 700V600H200v100h200zM100 600h100V400h200V300H200V100h300V0H0v100h100v200H0v100h100v200zm400-100H400v100h100V500z"/><glyph glyph-name="plus" unicode="+" d="M500 400V300H300V100H200v200H0v100h200v200h100V400h200z"/><glyph glyph-name="divide" unicode="÷" d="M300 600V500H200v100h100zm200-200V300H0v100h500zM200 100v100h100V100H200z"/><glyph glyph-name="equal" unicode="=" d="M500 500V400H0v100h500zm0-300V100H0v100h500z"/><glyph glyph-name="greater" unicode="&gt;" horiz-adv-x="500" d="M0 600v100h100V600H0zm100-100v100h100V500H100zm100-100v100h100V400H200zm100-100v100h100V300H300zM200 200v100h100V200H200zM100 100v100h100V100H100zM0 0v100h100V0H0z"/><glyph glyph-name="less" unicode="&lt;" horiz-adv-x="500" d="M300 600v100h100V600H300zM200 500v100h100V500H200zM100 400v100h100V400H100zM0 300v100h100V300H0zm100-100v100h100V200H100zm100-100v100h100V100H200zM300 0v100h100V0H300z"/><glyph glyph-name="plusminus" unicode="±" d="M500 500V400H300V200H200v200H0v100h200v200h100V500h200zm0-400V0H0v100h500z"/><glyph glyph-name="approxequal" unicode="≈" horiz-adv-x="800" d="M700 600V500H600V400H300v100H200V400H0v100h100v100h300V500h100v100h200zM500 300h200V200H600V100H300v100H200V100H0v100h100v100h300V200h100v100z"/><glyph glyph-name="asciitilde" unicode="~" horiz-adv-x="700" d="M300 700V600H100v100h200zm200 0h100V600H500v100zM0 500v100h100V500H0zm300 100h200V500H300v100z"/><glyph glyph-name="logicalnot" unicode="¬" d="M500 300V100H400v100H0v100h500z"/><glyph glyph-name="infinity" unicode="∞" horiz-adv-x="800" d="M300 400H100v100h200V400zm300 0H400v100h200V400zm-500 0V200H0v200h100zm300 0V200H300v200h100zm200 0h100V200H600v200zM100 200h200V100H100v100zm300 0h200V100H400v100z"/><glyph glyph-name="summation" unicode="∑" d="M500 700V500H400v100H100V500H0v200h500zM200 400H100v100h100V400zm100-100H200v100h100V300zM100 200v100h100V200H100zM0 200h100V100h300v100h100V0H0v200z"/><glyph glyph-name="radical" unicode="√" horiz-adv-x="900" d="M800 700V600H600V0H300v100H200v100H100v100H0v100h300V200h100v500h400z"/><glyph glyph-name="percent" unicode="%" d="M100 500H0v200h100V500zm300 200h100V600H400v100zM300 600h100V400H300v200zM200 300v100h100V300H200zm-100 0h100V100H100v200zm300-100h100V0H400v200zM0 0v100h100V0H0z"/><glyph glyph-name="smileface" unicode="☺" horiz-adv-x="900" d="M100 600v100h600V600H100zm0-600H0v600h100V0zm600 600h100V0H700v600zM300 500V400H200v100h100zm200-100v100h100V400H500zm100-100V200H500V100H300v100H200v100h400zM700 0v-100H100V0h600z"/><glyph glyph-name="invsmileface" unicode="☻" horiz-adv-x="900" d="M700 600h100V0H700v-100H100V0H0v600h100v100h600V600zM200 500V400h100v100H200zm400-100v100H500V400h100zm0-200v100H200V200h100V100h200v100h100z"/><glyph glyph-name="sun" unicode="☼" horiz-adv-x="900" d="M0 700h100V600H0v100zm500-200h100V400h200V200H600V100H500v-200H300v200H200v100H0v200h200v100h100v200h200V500zm300 200V600H700v100h100zM100 600h100V500H100v100zm600 0V500H600v100h100zM500 400H300V200h200v200zM100 0v100h100V0H100zm600 0H600v100h100V0zM0-100V0h100v-100H0zm800 0H700V0h100v-100z"/><glyph glyph-name="female" unicode="♀" d="M100 600v100h300V600H100zm0-300H0v300h100V300zm300 300h100V300H400v300zm0-300V200H300V100h100V0H300v-100H200V0H100v100h100v100H100v100h300z"/><glyph glyph-name="male" unicode="♂" horiz-adv-x="800" d="M700 700V400H600v100H500v100H400v100h300zM400 400v100h100V400H400zm0 0V300H100v100h300zM100 0H0v300h100V0zm300 300h100V0H400v300zm0-300v-100H100V0h300z"/><glyph glyph-name="spade" unicode="♠" horiz-adv-x="800" d="M600 300h100V200H600V100H500V0h100v-100H100V0h100v100H100v100H0v100h100v100h100v100h100v200h100V500h100V400h100V300z"/><glyph glyph-name="club" unicode="♣" horiz-adv-x="800" d="M700 400V200H600V100H500V0h100v-100H100V0h100v100H100v100H0v200h200v100H100v100h100v100h300V600h100V500H500V400h200z"/><glyph glyph-name="heart" unicode="♥" horiz-adv-x="800" d="M600 600h100V300H600V200H500V100H400V0H300v100H200v100H100v100H0v300h100v100h200V600h100v100h200V600z"/><glyph glyph-name="diamond" unicode="♦" horiz-adv-x="800" d="M600 400h100V300H600V200H500V100H400V0H300v100H200v100H100v100H0v100h100v100h100v100h100v100h100V600h100V500h100V400z"/><glyph glyph-name="at" unicode="@" horiz-adv-x="700" d="M500 700V600H100v100h400zM0 600h100V100H0v500zm500 0h100V200H200v300h200V300h100v300zM100 0v100h400V0H100z"/><glyph glyph-name="ampersand" unicode="&amp;" d="M300 700V600H200v100h100zM100 600h100V500H100v100zm300-100H300v100h100V500zm0-200V100H300v100H200v100H100v100h100v100h100V300h100zm100 100V300H400v100h100zM100 300V100H0v200h100zm0-200h200V0H100v100zM500 0H400v100h100V0z"/><glyph glyph-name="paragraph" unicode="¶" horiz-adv-x="700" d="M600 700V0H500v600H400V0H300v300H100v100h200v200H100v100h500zM100 600V400H0v200h100z"/><glyph glyph-name="section" unicode="§" d="M100 600v100h400V600H100zM0 600h100V500H0v100zm100-200v100h300V400H100zM0 400h100V300H0v100zm500-100H400v100h100V300zm-100 0V200H100v100h300zm100-200H400v100h100V100zm-100 0V0H0v100h400z"/><glyph glyph-name="registered" unicode="®" horiz-adv-x="700" d="M200 400H100v100h400V400H400V300H300V200H200v200zm200-200V100h100V0H100v100H0v300h100V200h100V100h100v100h100zm100 200h100V100H500v300z"/><glyph glyph-name="bar" unicode="|" horiz-adv-x="200" d="M0 700h100V400H0v300zm0-400h100V0H0v300z"/><glyph glyph-name="asciicircum" unicode="^" d="M200 600v100h100V600H200zM100 500v100h100V500H100zm200 0v100h100V500H300zM0 400v100h100V400H0zm400 0v100h100V400H400z"/><glyph glyph-name="house" unicode="⌂" d="M300 500V400H200v100h100zM200 400V300H100v100h100zm200-100H300v100h100V300zm0 0h100V0H0v300h100V100h300v200z"/><glyph glyph-name="cedilla" unicode="¸" horiz-adv-x="400" d="M200 0h100v-100H200V0zM0-100h200v-100H0v100z"/></font>
</defs>
</svg>
